<?xml version="1.0" encoding="iso-8859-1"?>
<!-- Generator: Adobe Illustrator 26.3.1, SVG Export Plug-In . SVG Version: 6.00 Build 0)  -->
<svg version="1.1" id="Calque_1" xmlns="http://www.w3.org/2000/svg" xmlns:xlink="http://www.w3.org/1999/xlink" x="0px" y="0px"
	 viewBox="0 0 1920 1080" style="enable-background:new 0 0 1920 1080;" xml:space="preserve">
<g>
	<path style="fill:#FFFFFF;" d="M808.86,364.214c-28.165,0-53.122,7.322-73.316,20.804c-6.357,4.232-12.242,9.073-17.596,14.486
		c-20.135,20.292-33.046,48.595-36.235,82.98c-0.472,5.098-0.748,10.333-0.768,15.706c-0.02,0.472-0.02,0.964-0.02,1.437
		c0,82.271,51.173,140.136,128.327,140.136h90.931V364.214H808.86z M878.928,620.081h-66.525
		c-58.357,0-92.958-32.849-104.394-80.952c-2.834-11.927-4.251-24.799-4.251-38.321c0-1.437,0.02-2.874,0.059-4.291
		c0.846-33.637,11.809-65.561,34.916-86.759c6.318-5.806,13.522-10.786,21.69-14.801c14.328-7.046,31.59-11.061,51.98-11.061h66.525
		L878.928,620.081L878.928,620.081z"/>
</g>
<g>
	<path style="fill:#FFFFFF;" d="M781.029,400.606c-7.578-1.89-14.427-3.74-20.607-5.649c-10.018-3.11-18.226-6.318-24.878-9.939
		c-16.69-9.093-23.402-20.686-23.402-39.128c0-30.704,21.65-49.205,61.408-49.205c43.301,0,62.589,21.257,68.887,50.78h22.044
		c-3.543-33.46-29.129-70.462-89.75-70.462c-59.046,0-85.42,33.853-85.42,70.068c0,23.756,8.995,40.053,28.637,52.433
		c5.944,3.74,12.852,7.125,20.784,10.254c9.762,3.838,21.08,7.302,34.03,10.53c60.621,14.958,74.398,34.247,74.398,65.344
		c0,29.917-19.289,55.11-69.675,55.11c-39.148,0-62.687-16.179-73.67-44.226c-1.732-4.389-3.149-9.073-4.271-14.033h-17.832
		c-0.472,5.098-0.748,10.333-0.768,15.706c4.566,15.116,13.069,29.74,27.063,40.939c15.45,12.341,37.632,20.509,68.69,20.509
		c63.77,0,93.293-35.034,93.293-75.579C869.992,450.992,858.577,419.895,781.029,400.606z"/>
</g>
<g>
	<path style="fill:#FFFFFF;" d="M1013.554,374.055c22.831-6.298,42.513-27.555,42.513-60.227c0-39.758-28.342-67.706-81.09-67.706
		h-96.049v275.549h97.623c48.024,0,89.357-24.406,89.357-79.516C1065.908,398.854,1033.236,379.566,1013.554,374.055z
		 M899.791,265.803h76.367c38.577,0,57.472,22.044,57.472,49.205c0,31.885-18.107,49.599-65.738,49.599h-68.1v-98.804H899.791z
		 M977.338,501.988h-77.547V384.29h66.132c55.504,0,77.941,24.012,77.941,59.046C1043.864,483.881,1013.554,501.988,977.338,501.988
		z"/>
</g>
<rect x="649.632" y="464.317" style="fill:#FFFFFF;" width="6.082" height="12.183"/>
<rect x="649.632" y="464.317" style="fill:#FFFFFF;" width="6.082" height="12.183"/>
<path style="fill:#FFFFFF;" d="M681.123,485.652c0,3.011-0.453,5.924-1.299,8.66c-1.004-3.936-1.771-7.912-2.323-11.829h3.444
	C681.064,483.527,681.123,484.57,681.123,485.652z"/>
</svg>
